<svg width="40" height="40" viewBox="0 0 40 40" fill="none" xmlns="http://www.w3.org/2000/svg">
<circle cx="20" cy="20" r="20" fill="white"/>
<circle cx="20" cy="20" r="19.5" stroke="#EAEAEA" stroke-opacity="0.9"/>
<path d="M9 9H11.4444L11.9333 11.5556M13.8889 21.7778H26.1111L31 11.5556H11.9333M13.8889 21.7778L11.9333 11.5556M13.8889 21.7778L11.0865 24.7076C10.3165 25.5125 10.8618 26.8889 11.9507 26.8889H26.1111M26.1111 26.8889C24.7611 26.8889 23.6667 28.0331 23.6667 29.4444C23.6667 30.8558 24.7611 32 26.1111 32C27.4611 32 28.5556 30.8558 28.5556 29.4444C28.5556 28.0331 27.4611 26.8889 26.1111 26.8889ZM16.3333 29.4444C16.3333 30.8558 15.2389 32 13.8889 32C12.5389 32 11.4444 30.8558 11.4444 29.4444C11.4444 28.0331 12.5389 26.8889 13.8889 26.8889C15.2389 26.8889 16.3333 28.0331 16.3333 29.4444Z" stroke="#0D0842" stroke-width="1.5" stroke-linecap="round" stroke-linejoin="round"/>
</svg>
